<svg width="34" height="34" viewBox="0 0 34 34" fill="none" xmlns="http://www.w3.org/2000/svg">
<path d="M14.6663 24.6663L26.4163 12.9163L24.083 10.583L14.6663 19.9997L9.91634 15.2497L7.58301 17.583L14.6663 24.6663ZM16.9997 33.6663C14.6941 33.6663 12.5275 33.2286 10.4997 32.353C8.4719 31.4775 6.70801 30.2902 5.20801 28.7913C3.70801 27.2913 2.52079 25.5275 1.64634 23.4997C0.771897 21.4719 0.334119 19.3052 0.333008 16.9997C0.333008 14.6941 0.770786 12.5275 1.64634 10.4997C2.5219 8.4719 3.70912 6.70801 5.20801 5.20801C6.70801 3.70801 8.4719 2.52079 10.4997 1.64634C12.5275 0.771897 14.6941 0.334119 16.9997 0.333008C19.3052 0.333008 21.4719 0.770786 23.4997 1.64634C25.5275 2.5219 27.2913 3.70912 28.7913 5.20801C30.2913 6.70801 31.4791 8.4719 32.3547 10.4997C33.2302 12.5275 33.6674 14.6941 33.6663 16.9997C33.6663 19.3052 33.2286 21.4719 32.353 23.4997C31.4775 25.5275 30.2902 27.2913 28.7913 28.7913C27.2913 30.2913 25.5275 31.4791 23.4997 32.3547C21.4719 33.2302 19.3052 33.6674 16.9997 33.6663ZM16.9997 30.333C20.7219 30.333 23.8747 29.0413 26.458 26.458C29.0413 23.8747 30.333 20.7219 30.333 16.9997C30.333 13.2775 29.0413 10.1247 26.458 7.54134C23.8747 4.95801 20.7219 3.66634 16.9997 3.66634C13.2775 3.66634 10.1247 4.95801 7.54134 7.54134C4.95801 10.1247 3.66634 13.2775 3.66634 16.9997C3.66634 20.7219 4.95801 23.8747 7.54134 26.458C10.1247 29.0413 13.2775 30.333 16.9997 30.333Z" fill="black"/>
</svg>
