<svg width="22" height="20" viewBox="0 0 22 20" fill="none" xmlns="http://www.w3.org/2000/svg">
    <path
        d="M0 6.23702C0.000335715 7.68489 0.552357 9.08787 1.56201 10.2069C2.57167 11.326 3.97649 12.0918 5.53713 12.3741C5.62601 11.4776 5.87882 10.601 6.28513 9.78036C5.08063 9.41001 4.3065 8.56922 4.125 7.37559H3.4375V6.84259H4.07825V6.29957C4.07825 6.24202 4.07825 6.18322 4.08375 6.13067H3.4375V5.59641H4.14012C4.4495 4.03494 5.79288 3.10907 7.81138 3.10907C8.24588 3.10907 8.62263 3.14785 8.9375 3.21542V4.13253C8.56974 4.05808 8.19356 4.02364 7.81687 4.02993C6.55325 4.02993 5.70213 4.61298 5.43262 5.59641H8.0685V6.13067H5.346C5.34188 6.18822 5.34188 6.25203 5.34188 6.31459V6.84259H8.0685V7.37684H5.40375C5.566 8.13005 6.04725 8.66556 6.78562 8.91454C7.50962 7.82346 8.50529 6.9025 9.69234 6.22594C10.8794 5.54938 12.2246 5.13616 13.6194 5.01962C13.2822 3.50007 12.3372 2.14849 10.9675 1.22668C9.59774 0.30487 7.90079 -0.12156 6.20532 0.029993C4.50985 0.181546 2.93654 0.900296 1.79013 2.04702C0.643724 3.19374 0.00582584 4.68681 0 6.23702ZM22 13.1185C22 14.9436 21.2032 16.6939 19.785 17.9845C18.3668 19.275 16.4432 20 14.4375 20C12.4318 20 10.5082 19.275 9.09 17.9845C7.67176 16.6939 6.875 14.9436 6.875 13.1185C6.875 11.2934 7.67176 9.54309 9.09 8.25256C10.5082 6.96203 12.4318 6.23702 14.4375 6.23702C16.4432 6.23702 18.3668 6.96203 19.785 8.25256C21.2032 9.54309 22 11.2934 22 13.1185ZM11.3438 14.7726C11.4386 15.8173 12.3695 16.6306 14.0442 16.7269V17.4976H14.7867V16.7219C16.5179 16.6143 17.5312 15.796 17.5312 14.6074C17.5312 13.5251 16.7571 12.9684 15.3725 12.6806L14.7867 12.5555V10.4585C15.5292 10.5336 16.0023 10.8927 16.115 11.3906H17.4185C17.3223 10.3847 16.3474 9.59769 14.7867 9.51135V8.73938H14.0442V9.52637C12.5647 9.65524 11.5583 10.4422 11.5583 11.5558C11.5583 12.5405 12.3062 13.1673 13.552 13.4238L14.0442 13.5301V15.7572C13.2825 15.6572 12.7793 15.2868 12.6651 14.7726H11.3438ZM14.0387 12.4016C13.3073 12.2514 12.9113 11.9462 12.9113 11.4857C12.9113 10.9727 13.3389 10.5861 14.0442 10.4735V12.4003H14.0374L14.0387 12.4016ZM14.894 13.7078C15.7809 13.8892 16.1906 14.1833 16.1906 14.7038C16.1906 15.2968 15.6819 15.7047 14.7881 15.7798V13.6853L14.894 13.7078Z"
        fill="black" fill-opacity="0.62" />
</svg>