<svg width="34" height="34" viewBox="0 0 34 34" fill="none" xmlns="http://www.w3.org/2000/svg">
    <path
        d="M8.66683 21.8997L18.7668 11.7997L22.2002 15.233L12.1002 25.333H8.66683V21.8997ZM17.0002 30.333C20.5364 30.333 23.9278 28.9282 26.4283 26.4278C28.9287 23.9273 30.3335 20.5359 30.3335 16.9997C30.3335 13.4635 28.9287 10.0721 26.4283 7.57158C23.9278 5.0711 20.5364 3.66634 17.0002 3.66634C13.4639 3.66634 10.0726 5.0711 7.57207 7.57158C5.07159 10.0721 3.66683 13.4635 3.66683 16.9997C3.66683 20.5359 5.07159 23.9273 7.57207 26.4278C10.0726 28.9282 13.4639 30.333 17.0002 30.333ZM24.8335 12.583L23.1668 14.2497L19.7502 10.833L21.4168 9.16634C21.7668 8.79967 22.3502 8.79967 22.7002 9.16634L24.8335 11.2997C25.2002 11.6497 25.2002 12.233 24.8335 12.583ZM17.0002 0.333008C19.1889 0.333008 21.3561 0.764104 23.3782 1.60168C25.4003 2.43926 27.2376 3.66692 28.7853 5.21456C30.3329 6.7622 31.5606 8.59952 32.3982 10.6216C33.2357 12.6437 33.6668 14.811 33.6668 16.9997C33.6668 21.4199 31.9109 25.6592 28.7853 28.7848C25.6597 31.9104 21.4204 33.6663 17.0002 33.6663C14.8115 33.6663 12.6442 33.2352 10.6221 32.3977C8.60001 31.5601 6.76269 30.3324 5.21505 28.7848C2.08944 25.6592 0.333496 21.4199 0.333496 16.9997C0.333496 12.5794 2.08944 8.34017 5.21505 5.21456C8.34066 2.08896 12.5799 0.333008 17.0002 0.333008Z"
        fill="black" />
</svg>