<svg width="22" height="20" viewBox="0 0 22 20" fill="none" xmlns="http://www.w3.org/2000/svg">
<path d="M9.77778 15.5556H12.2222L12.5889 13.8889C12.8333 13.7963 13.0627 13.6989 13.277 13.5967C13.4913 13.4944 13.7101 13.3696 13.9333 13.2222L15.7056 13.7222L16.9278 11.8333L15.5222 10.7222C15.563 10.463 15.5833 10.2222 15.5833 10C15.5833 9.77778 15.563 9.53704 15.5222 9.27778L16.9278 8.16667L15.7056 6.27778L13.9333 6.77778C13.7093 6.62963 13.4905 6.50445 13.277 6.40222C13.0635 6.3 12.8341 6.20296 12.5889 6.11111L12.2222 4.44445H9.77778L9.41111 6.11111C9.16667 6.2037 8.9373 6.30111 8.723 6.40333C8.5087 6.50556 8.28993 6.63037 8.06667 6.77778L6.29445 6.27778L5.07222 8.16667L6.47778 9.27778C6.43704 9.53704 6.41667 9.77778 6.41667 10C6.41667 10.2222 6.43704 10.463 6.47778 10.7222L5.07222 11.8333L6.29445 13.7222L8.06667 13.2222C8.29074 13.3704 8.50993 13.4956 8.72422 13.5978C8.93852 13.7 9.16748 13.797 9.41111 13.8889L9.77778 15.5556ZM11 12.2222C10.3278 12.2222 9.75211 12.0044 9.273 11.5689C8.79389 11.1333 8.55474 10.6104 8.55556 10C8.55556 9.38889 8.79511 8.86556 9.27422 8.43C9.75333 7.99445 10.3286 7.77704 11 7.77778C11.6722 7.77778 12.2479 7.99556 12.727 8.43111C13.2061 8.86667 13.4453 9.38963 13.4444 10C13.4444 10.6111 13.2049 11.1344 12.7258 11.57C12.2467 12.0056 11.6714 12.223 11 12.2222ZM2.44445 20C1.77222 20 1.19656 19.7822 0.717446 19.3467C0.238335 18.9111 -0.00081274 18.3881 2.07508e-06 17.7778V2.22222C2.07508e-06 1.61111 0.239558 1.08778 0.718669 0.652224C1.19778 0.216668 1.77304 -0.000738854 2.44445 1.88644e-06H19.5556C20.2278 1.88644e-06 20.8034 0.21778 21.2826 0.653335C21.7617 1.08889 22.0008 1.61185 22 2.22222V17.7778C22 18.3889 21.7604 18.9122 21.2813 19.3478C20.8022 19.7833 20.227 20.0007 19.5556 20H2.44445Z" fill="black" fill-opacity="0.62"/>
</svg>
